#!OML:ASF H:\Not Pregnant\Project 1\Capture day 1\Session 1\non-pregnant.ASF
:FULLY-SPECIFIED
:DEGREES
1209
root -3.06847 15.8656 31.5259 22.1446 -70.5589 -8.03953
lowerback -1.93285 2.43935 7.09256
upperback -3.72619 3.19716 0.233504
thorax -2.40232 1.39628 -3.7203
lowerneck 23.3418 -8.17971 -32.7605
upperneck -20.4394 -16.0383 40.8384
head -2.58807 -10.5633 23.0215
rclavicle 2.74323e-014 2.26615e-014
rhumerus -25.5911 28.7 -97.5796
rradius 29.4716
rwrist 15.1966
rhand -9.31425 2.81833
rfingers 7.12502
rthumb 16.6439 -26.488
lclavicle 2.74323e-014 2.26615e-014
lhumerus -41.8628 -10.5961 88.9271
lradius 34.6438
lwrist 35.8759
lhand -13.9947 -13.2743
lfingers 7.12502
lthumb 12.1342 16.3539
rfemur -35.8973 -5.95937 31.372
rtibia 33.8814
rfoot -13.5397 7.34314
rtoes -5.11879
lfemur -23.3399 6.85593 -16.9464
ltibia 57.1245
lfoot -7.80615 -16.7412
ltoes -41.6186
1210
root -3.11428 15.8672 31.5611 22.3623 -71.0939 -8.22871
lowerback -1.88347 2.49195 7.09206
upperback -3.68449 3.27001 0.186815
thorax -2.37561 1.4346 -3.76864
lowerneck 23.1129 -8.15104 -32.732
upperneck -20.2166 -15.9578 40.9048
head -2.51463 -10.5231 23.0226
rclavicle 1.49089e-014 8.74653e-015
rhumerus -24.951 27.9092 -96.9478
rradius 28.818
rwrist 16.3969
rhand -9.76114 2.86895
rfingers 7.12502
rthumb 16.2137 -26.473
lclavicle 1.49089e-014 8.74653e-015
lhumerus -41.3043 -10.0547 88.5321
lradius 34.9087
lwrist 36.8104
lhand -13.9785 -12.8424
lfingers 7.12502
lthumb 12.1498 16.7848
rfemur -35.7311 -5.70611 31.2434
rtibia 33.9501
rfoot -13.7404 7.4942
rtoes -5.24413
lfemur -23.9708 6.59647 -16.8111
ltibia 57.2066
lfoot -9.23358 -15.2345
ltoes -42.0005
1211
root -3.15818 15.8698 31.5971 22.4932 -71.6401 -8.33358
lowerback -1.8133 2.5467 7.06873
upperback -3.64686 3.34768 0.125547
thorax -2.36439 1.47519 -3.82043
lowerneck 22.8806 -8.12449 -32.7111
upperneck -19.9769 -15.8858 40.9679
head -2.43216 -10.4859 23.0188
rclavicle 3.42407e-014 8.34896e-015
rhumerus -24.2959 26.9669 -96.286
rradius 28.1415
rwrist 17.7103
rhand -10.1967 2.96311
rfingers 7.12502
rthumb 15.7943 -26.4125
lclavicle 3.42407e-014 8.34896e-015
lhumerus -40.7276 -9.48325 88.1392
lradius 35.1308
lwrist 37.6892
lhand -13.9721 -12.4737
lfingers 7.12502
lthumb 12.156 17.1531
rfemur -35.5611 -5.47136 31.0766
rtibia 34.0066
rfoot -13.9319 7.65954
rtoes -5.38129
lfemur -24.5596 6.26414 -16.6987
ltibia 57.1503
lfoot -10.4375 -13.6931
ltoes -42.1383
1212
root -3.2006 15.8735 31.6331 22.5649 -72.207 -8.38004
lowerback -1.72441 2.59663 7.02285
upperback -3.61635 3.42071 0.0562331
thorax -2.37219 1.51309 -3.86927
lowerneck 22.6346 -8.09339 -32.7055
upperneck -19.7114 -15.814 41.0256
head -2.33967 -10.4462 23.0108
rclavicle 6.58474e-014 -4.77083e-015
rhumerus -23.6324 25.8712 -95.618
rradius 27.4419
rwrist 19.1436
rhand -10.6081 3.00179
rfingers 7.12502
rthumb 15.398 -26.4048
lclavicle 6.58474e-014 -4.77083e-015
lhumerus -40.1568 -8.89969 87.7688
lradius 35.3285
lwrist 38.4615
lhand -14.1113 -12.1676
lfingers 7.12502
lthumb 12.0218 17.4671
rfemur -35.3869 -5.23693 30.881
rtibia 34.0491
rfoot -14.1133 7.83411
rtoes -5.53175
lfemur -25.104 5.87762 -16.5963
ltibia 56.9569
lfoot -11.4488 -12.1222
ltoes -42.1013
1213
root -3.24196 15.8784 31.6696 22.5565 -72.7952 -8.35143
lowerback -1.6122 2.64397 6.95238
upperback -3.59259 3.49234 -0.0177233
thorax -2.40121 1.54993 -3.91076
lowerneck 22.388 -8.06018 -32.7123
upperneck -19.4387 -15.7452 41.071
head -2.2447 -10.405 22.9968
rclavicle 3.05134e-014 3.18055e-015
rhumerus -22.9919 24.6809 -94.9493
rradius 26.7611
rwrist 20.6179
rhand -11.0328 2.97098
rfingers 7.12502
rthumb 14.9889 -26.4666
lclavicle 3.05134e-014 3.18055e-015
lhumerus -39.6097 -8.34931 87.4643
lradius 35.5248
lwrist 39.188
lhand -14.4793 -11.9509
lfingers 7.12502
lthumb 11.6669 17.7042
rfemur -35.2005 -5.00773 30.6498
rtibia 34.0757
rfoot -14.2882 8.02302
rtoes -5.6858
lfemur -25.5915 5.43607 -16.5102
ltibia 56.6266
lfoot -12.2856 -10.5039
ltoes -41.9425
1214
root -3.2823 15.8842 31.7063 22.5207 -73.3945 -8.29345
lowerback -1.49273 2.67678 6.86732
upperback -3.57747 3.54518 -0.0869187
thorax -2.44657 1.57694 -3.9402
lowerneck 22.1224 -8.01433 -32.7446
upperneck -19.1383 -15.6666 41.1066
head -2.14222 -10.3546 22.9807
rclavicle 1.1281e-014 -6.75868e-015
rhumerus -22.368 23.4119 -94.3006
rradius 26.0943
rwrist 22.1132
rhand -11.3977 2.84394
rfingers 7.12502
rthumb 14.6373 -26.6195
lclavicle 1.1281e-014 -6.75868e-015
lhumerus -39.0942 -7.81764 87.2169
lradius 35.7245
lwrist 39.8021
lhand -15.1003 -11.8033
lfingers 7.12502
lthumb 11.068 17.8848
rfemur -35.0102 -4.78028 30.4073
rtibia 34.0825
rfoot -14.4548 8.21246
rtoes -5.86686
lfemur -26.0371 4.94708 -16.4173
ltibia 56.1688
lfoot -12.9666 -8.83946
ltoes -41.7112
1215
root -3.32202 15.8906 31.7432 22.481 -73.9987 -8.23049
lowerback -1.37239 2.69808 6.77527
upperback -3.56718 3.58257 -0.149857
thorax -2.50005 1.59602 -3.95975
lowerneck 21.8355 -7.96619 -32.7836
upperneck -18.8207 -15.5841 41.1298
head -2.03442 -10.2982 22.9554
rclavicle 4.71617e-014 1.86858e-014
rhumerus -21.7672 22.0792 -93.6768
rradius 25.4646
rwrist 23.5852
rhand -11.7006 2.59131
rfingers 7.12502
rthumb 14.3455 -26.8931
lclavicle 4.71617e-014 1.86858e-014
lhumerus -38.5978 -7.3033 87.0128
lradius 35.9254
lwrist 40.3618
lhand -15.88 -11.752
lfingers 7.12502
lthumb 10.3159 17.975
rfemur -34.814 -4.55785 30.162
rtibia 34.0677
rfoot -14.6122 8.40875
rtoes -6.02897
lfemur -26.4394 4.41258 -16.3087
ltibia 55.5884
lfoot -13.5097 -7.12176
ltoes -41.4271
1216
root -3.3613 15.8977 31.7804 22.4813 -74.6003 -8.20117
lowerback -1.26798 2.71269 6.6977
upperback -3.56011 3.6095 -0.209333
thorax -2.54866 1.60956 -3.98324
lowerneck 21.5266 -7.92126 -32.8004
upperneck -18.4909 -15.4943 41.131
head -1.92838 -10.2347 22.9097
rclavicle 2.80535e-014 3.18055e-015
rhumerus -21.1922 20.6933 -93.079
rradius 24.8782
rwrist 24.9812
rhand -11.9385 2.27135
rfingers 7.12502
rthumb 14.1163 -27.2291
lclavicle 2.80535e-014 3.18055e-015
lhumerus -38.1278 -6.88118 86.8856
lradius 36.1331
lwrist 40.8186
lhand -16.9015 -11.7903
lfingers 7.12502
lthumb 9.33042 17.9832
rfemur -34.6171 -4.33921 29.9295
rtibia 34.028
rfoot -14.7632 8.60416
rtoes -6.21744
lfemur -26.8112 3.83581 -16.1699
ltibia 54.8967
lfoot -13.928 -5.37184
ltoes -41.0591
1217
root -3.40082 15.9053 31.8188 22.5393 -75.2004 -8.22665
lowerback -1.18913 2.7266 6.66104
upperback -3.55034 3.63311 -0.279925
thorax -2.57764 1.62098 -4.03968
lowerneck 21.1893 -7.8808 -32.7798
upperneck -18.1454 -15.3936 41.1175
head -1.82404 -10.1636 22.8449
rclavicle 8.04332e-014 2.0276e-014
rhumerus -20.6259 19.2004 -92.518
rradius 24.3193
rwrist 26.2958
rhand -12.1358 1.93263
rfingers 7.12502
rthumb 13.9261 -27.581
lclavicle 8.04332e-014 2.0276e-014
lhumerus -37.6756 -6.59054 86.8228
lradius 36.3334
lwrist 41.1236
lhand -18.1174 -11.9138
lfingers 7.12502
lthumb 8.15704 17.9087
rfemur -34.4136 -4.12374 29.7088
rtibia 33.9639
rfoot -14.9088 8.80159
rtoes -6.41603
lfemur -27.1467 3.21249 -16.0014
ltibia 54.1
lfoot -14.256 -3.58568
ltoes -40.6284
1218
root -3.44052 15.9133 31.8579 22.7114 -75.7927 -8.35542
lowerback -1.14201 2.74489 6.67412
upperback -3.54174 3.65999 -0.358172
thorax -2.58642 1.63326 -4.13015
lowerneck 20.8451 -7.83793 -32.7574
upperneck -17.7931 -15.2901 41.1219
head -1.7155 -10.0927 22.792
rclavicle -6.18717e-014 1.53064e-014
rhumerus -20.0895 17.6408 -91.9931
rradius 23.8108
rwrist 27.4767
rhand -12.3062 1.58609
rfingers 7.12502
rthumb 13.7619 -27.9388
lclavicle -6.18717e-014 1.53064e-014
lhumerus -37.2511 -6.48317 86.8531
lradius 36.5332
lwrist 41.2914
lhand -19.5989 -12.1664
lfingers 7.12502
lthumb 6.72703 17.7067
rfemur -34.2138 -3.8972 29.5116
rtibia 33.8767
rfoot -15.0416 8.99411
rtoes -6.60494
lfemur -27.4632 2.55029 -15.786
ltibia 53.2091
lfoot -14.5203 -1.79756
ltoes -40.104
1219
root -3.48012 15.9213 31.8984 23.0165 -76.3706 -8.6036
lowerback -1.12403 2.76857 6.73864
upperback -3.53591 3.69184 -0.44617
thorax -2.57763 1.64706 -4.25797
lowerneck 20.5024 -7.79101 -32.7322
upperneck -17.4424 -15.1826 41.1544
head -1.60571 -10.0234 22.7599
rclavicle 2.88238e-015 2.34566e-014
rhumerus -19.5918 16.0768 -91.5148
rradius 23.3711
rwrist 28.4657
rhand -12.486 1.3034
rfingers 7.12502
rthumb 13.5886 -28.2331
lclavicle 2.88238e-015 2.34566e-014
lhumerus -36.8434 -6.53645 86.9426
lradius 36.7125
lwrist 41.3188
lhand -21.1525 -12.5461
lfingers 7.12502
lthumb 5.22712 17.3694
rfemur -34.0255 -3.66358 29.337
rtibia 33.7719
rfoot -15.163 9.18356
rtoes -6.78012
lfemur -27.7706 1.84352 -15.5216
ltibia 52.2307
lfoot -14.7418 -0.00795212
ltoes -39.5064
